<svg xmlns="http://www.w3.org/2000/svg" width="175.748" height="31.521" viewBox="0 0 175.748 31.521"><defs><style>.a{fill:#cc2229;fill-rule:evenodd;}</style></defs><g transform="translate(-8.504 -80.618)"><path class="a" d="M147.676,81.361H136.524s-5.354,12.787-6.691,15.76c-1.338-3.122-6.541-15.76-6.541-15.76H110.8l12.043,29.885H136.97l12.045-29.885Zm-1.338,15.017c0,9.813,7.285,15.761,19.18,15.761,10.635,0,17.645-5.125,18.734-13.428V94c-1.08-8.385-7.973-13.379-18.734-13.379-11.9,0-19.18,5.946-19.18,15.76Zm11.746.3c0-4.461,3.121-7.732,7.434-7.732a7.434,7.434,0,0,1,7.434,7.732,7.238,7.238,0,0,1-7.434,7.285A7.066,7.066,0,0,1,158.084,96.676ZM9.4,81.361H8.5v29.885H37.2a8.539,8.539,0,0,0,8.475-8.326,8.038,8.038,0,0,0-5.5-7.731c2.379-1.189,3.568-3.42,3.568-6.394a7.426,7.426,0,0,0-7.285-7.434Zm20.073,8.623a1.517,1.517,0,0,1,1.338,1.635,1.326,1.326,0,0,1-1.338,1.338H19.953V89.983h9.516ZM30.956,99.8a1.781,1.781,0,0,1,1.784,1.486,1.713,1.713,0,0,1-1.784,1.783h-11V99.8Zm75.532-18.438H93.255L80.914,111.246H93.7s.6-1.783.743-2.527h11.45c.3.6,1.041,2.527,1.041,2.527h12.191L107.083,81.361ZM100.1,94.743c.893,2.082,1.783,4.46,2.379,5.8H97.717c.594-1.338,1.486-3.717,2.379-5.8Z"/><path class="a" d="M48.947,81.361h-.892v29.885H59.8v-9.664h4.015c.148.3,6.839,9.664,6.839,9.664H84.186s-6.988-8.326-8.475-10.109a9.827,9.827,0,0,0,7.88-9.517,10.322,10.322,0,0,0-9.962-10.259Zm21.262,8.623a1.935,1.935,0,0,1,1.933,1.635c0,.893-1.041,1.338-1.933,1.338H59.8V89.983Z"/></g></svg>