<svg xmlns="http://www.w3.org/2000/svg" width="30" height="30" viewBox="0 0 30 30"><defs><style>.a{fill:#003d64;stroke:#fff;stroke-width:0.5px;}.b{fill:#fff;}.c{stroke:none;}.d{fill:none;}</style></defs><g transform="translate(-1037 -2408)"><g class="a" transform="translate(1037 2408)"><rect class="c" width="30" height="30" rx="5"/><rect class="d" x="0.25" y="0.25" width="29.5" height="29.5" rx="4.75"/></g><path class="b" d="M29.746,0,27.834,0A3.357,3.357,0,0,0,24.3,3.627V5.3H22.378a.3.3,0,0,0-.3.3V8.024a.3.3,0,0,0,.3.3H24.3v6.115a.3.3,0,0,0,.3.3h2.507a.3.3,0,0,0,.3-.3V8.324h2.247a.3.3,0,0,0,.3-.3V5.6a.3.3,0,0,0-.3-.3H27.408V3.882c0-.681.162-1.027,1.05-1.027h1.288a.3.3,0,0,0,.3-.3V.3A.3.3,0,0,0,29.746,0Z" transform="translate(1025.923 2415.692)"/></g></svg>