<svg xmlns="http://www.w3.org/2000/svg" width="30" height="30" viewBox="0 0 30 30"><defs><style>.a{fill:#003d64;stroke:#fff;stroke-width:0.5px;}.b{fill:#fff;}.c{stroke:none;}.d{fill:none;}</style></defs><g transform="translate(-1077 -2408)"><g class="a" transform="translate(1077 2408)"><rect class="c" width="30" height="30" rx="5"/><rect class="d" x="0.25" y="0.25" width="29.5" height="29.5" rx="4.75"/></g><path class="b" d="M127.28,133.559a6.28,6.28,0,1,0-6.28-6.28A6.287,6.287,0,0,0,127.28,133.559Zm0-11.164a4.884,4.884,0,1,1-4.884,4.884A4.89,4.89,0,0,1,127.28,122.4Zm0,0" transform="translate(963 2296.791)"/><path class="b" d="M363.093,65.186A2.093,2.093,0,1,0,361,63.093,2.1,2.1,0,0,0,363.093,65.186Zm0-2.791a.7.7,0,1,1-.7.7A.7.7,0,0,1,363.093,62.4Zm0,0" transform="translate(734.164 2354)"/></g></svg>