<svg xmlns="http://www.w3.org/2000/svg" width="30" height="30" viewBox="0 0 30 30"><defs><style>.a{fill:#003d64;stroke:#fff;stroke-width:0.5px;}.b{fill:#fff;stroke:#003d64;}.c{stroke:none;}.d{fill:none;}</style></defs><g transform="translate(-1117 -2408)"><g class="a" transform="translate(1117 2408)"><rect class="c" width="30" height="30" rx="5"/><rect class="d" x="0.25" y="0.25" width="29.5" height="29.5" rx="4.75"/></g><path class="b" d="M91,219.924h4.213V210H91Zm1.4-8.52h1.4v7.115H92.4Zm0,0" transform="translate(1034 2211.076)"/><path class="b" d="M216.621,210h0a4.205,4.205,0,0,0-1.4.239V210H211v9.924h4.213v-5.009a.7.7,0,0,1,1.4,0v5.009h4.213v-5.491A4.413,4.413,0,0,0,216.621,210Zm2.8,8.52h-1.4v-3.6a2.106,2.106,0,0,0-4.213,0v3.6h-1.4V211.4h1.4v1.405l1.124-.844a2.784,2.784,0,0,1,1.685-.561h0a3,3,0,0,1,2.806,3.028Zm0,0" transform="translate(919.17 2211.076)"/><path class="b" d="M91,94.213h4.213V90H91ZM92.4,91.4h1.4v1.4H92.4Zm0,0" transform="translate(1034 2326)"/></g></svg>