<svg xmlns="http://www.w3.org/2000/svg" width="15" height="12.277" viewBox="0 0 15 12.277"><defs><style>.a{fill:#fff;}</style></defs><path class="a" d="M15,1.64c-.944.043-.923.04-1.03.049l.559-1.6s-1.744.642-2.187.756A3.5,3.5,0,0,0,8.221.518,2.855,2.855,0,0,0,6.849,3.453,7.614,7.614,0,0,1,1.916.676L1.5.179,1.193.747a3.432,3.432,0,0,0-.366,2.31,3.319,3.319,0,0,0,.322.9L.794,3.821l-.042.593A3.165,3.165,0,0,0,1.289,6.3a3.345,3.345,0,0,0,.418.516l-.183-.028.224.68a3.3,3.3,0,0,0,1.7,1.968c-.792.336-1.432.551-2.484.9L0,10.644l.889.486a9.329,9.329,0,0,0,2.719.99c2.63.412,5.591.077,7.584-1.719a7.138,7.138,0,0,0,2.115-5.9,1.4,1.4,0,0,1,.261-.91C13.941,3.092,15,1.643,15,1.64ZM12.866,3.062a2.277,2.277,0,0,0-.436,1.482,6.212,6.212,0,0,1-1.826,5.2c-1.55,1.4-4.051,1.944-6.861,1.5a6.8,6.8,0,0,1-1.47-.437A23.308,23.308,0,0,0,4.937,9.721l1.535-.727L4.777,8.886A2.4,2.4,0,0,1,2.873,7.8a3.04,3.04,0,0,0,.645-.108l1.616-.45-1.63-.4A2.428,2.428,0,0,1,2.022,5.813,2.486,2.486,0,0,1,1.7,5.1a4.069,4.069,0,0,0,.661.106l1.509.149-1.2-.932a2.516,2.516,0,0,1-.953-2.651A8.744,8.744,0,0,0,7.884,4.427a5.2,5.2,0,0,0-.09-.745,2.018,2.018,0,0,1,.887-2.416,2.625,2.625,0,0,1,3.1.256.786.786,0,0,0,.722.193,6.074,6.074,0,0,0,.595-.181l-.379,1.082H13.2Zm0,0" transform="translate(0 0)"/></svg>